<?xml version="1.0" encoding="iso-8859-1"?>
<!-- Generator: Adobe Illustrator 19.0.0, SVG Export Plug-In . SVG Version: 6.00 Build 0)  -->
<svg version="1.1" id="Capa_1" xmlns="http://www.w3.org/2000/svg" xmlns:xlink="http://www.w3.org/1999/xlink" x="0px" y="0px"
	 viewBox="0 0 511.972 511.972" style="enable-background:new 0 0 511.972 511.972;" xml:space="preserve">
<g>
	<g>
		<path d="M100.232,24.006h-0.078c-2.21,0-3.96,1.789-3.96,4s1.832,4,4.039,4c2.211,0,3.999-1.789,3.999-4
			S102.443,24.006,100.232,24.006z"/>
	</g>
</g>
<g>
	<g>
		<path d="M228.224,431.977h-0.078c-2.21,0-3.96,1.788-3.96,3.999s1.832,4,4.039,4c2.211,0,3.999-1.789,3.999-4
			S230.435,431.977,228.224,431.977z"/>
	</g>
</g>
<g>
	<g>
		<path d="M308.216,375.98h-0.078c-2.203,0-3.953,1.789-3.953,4c0,2.21,1.828,3.999,4.031,3.999c2.219,0,4-1.789,4-3.999
			C312.216,377.769,310.435,375.98,308.216,375.98z"/>
	</g>
</g>
<g>
	<g>
		<path d="M380.214,375.98h-0.078c-2.203,0-3.952,1.789-3.952,4c0,2.21,1.827,3.999,4.03,3.999c2.218,0,4-1.789,4-3.999
			C384.214,377.769,382.432,375.98,380.214,375.98z"/>
	</g>
</g>
<g>
	<g>
		<path d="M116.232,423.977h-0.078c-2.211,0-3.961,1.789-3.961,4s1.832,4,4.039,4c2.211,0,4-1.789,4-4
			S118.441,423.977,116.232,423.977z"/>
	</g>
</g>
<g>
	<g>
		<path d="M108.232,311.983h-0.078c-2.211,0-3.961,1.789-3.961,4s1.832,4,4.039,4c2.211,0,4-1.789,4-4
			S110.443,311.983,108.232,311.983z"/>
	</g>
</g>
<g>
	<g>
		<path d="M412.212,24.006h-0.078c-2.203,0-3.953,1.789-3.953,4s1.828,4,4.031,4c2.217,0,3.999-1.789,3.999-4
			S414.43,24.006,412.212,24.006z"/>
	</g>
</g>
<g>
	<g>
		<path d="M116.232,63.996h-0.078c-2.211,0-3.961,1.79-3.961,4c0,2.211,1.832,4,4.039,4c2.211,0,4-1.789,4-4
			S118.441,63.996,116.232,63.996z"/>
	</g>
</g>
<g>
	<g>
		<path d="M419.977,0H91.995C80.967,0,71.995,8.973,71.995,19.999v431.977c0,11.03,8.972,19.998,19.999,19.998h327.982
			c11.03,0,19.999-8.967,19.999-19.998V19.999C439.975,8.973,431.006,0,419.977,0z M431.975,451.976
			c0,6.616-5.382,11.999-11.999,11.999H91.995c-6.618,0-12-5.383-12-11.999V19.999c0-6.617,5.383-11.999,12-11.999h327.982
			c6.617,0,11.999,5.382,11.999,11.999V451.976z"/>
	</g>
</g>
<g>
	<g>
		<path d="M435.977,448.015c-2.211,0-4,1.789-4,4v39.958c0,6.617-5.382,12-11.999,12H91.995c-6.618,0-12-5.383-12-12v-39.958
			c0-2.211-1.789-4-4-4s-4,1.789-4,4v39.958c0,11.031,8.972,19.999,19.999,19.999h327.982c11.03,0,19.999-8.967,20-19.999v-39.958
			C439.977,449.804,438.188,448.015,435.977,448.015z"/>
	</g>
</g>
<g>
	<g>
		<path d="M255.984,24.006c-88.218,0-159.991,71.773-159.991,159.991c0,55.231,27.916,105.83,74.672,135.368
			c1.879,1.18,4.34,0.617,5.519-1.242c1.179-1.875,0.621-4.343-1.246-5.523c-44.424-28.053-70.946-76.133-70.946-128.603
			c0-83.808,68.184-151.992,151.992-151.992s151.992,68.184,151.992,151.992s-68.183,151.992-151.992,151.992
			c-3.937,0-7.843-0.148-11.702-0.445c-2.293-0.171-4.125,1.485-4.289,3.688s1.489,4.125,3.688,4.297
			c4.062,0.297,8.163,0.461,12.304,0.461c88.214,0,159.991-71.771,159.99-159.993C415.975,95.779,344.198,24.006,255.984,24.006z"/>
	</g>
</g>
<g>
	<g>
		<path d="M255.985,72.004c-61.754,0-111.994,50.24-111.994,111.994c0,2.211,1.789,4,4,4s4-1.789,4-4
			c0-57.345,46.649-103.994,103.994-103.994c2.211,0,4-1.789,4-4S258.196,72.004,255.985,72.004z"/>
	</g>
</g>
<g>
	<g>
		<path d="M363.979,179.998c-2.211,0-4,1.789-4,4c0,57.345-46.653,103.994-103.994,103.994c-2.211,0-4,1.789-4,4s1.789,4,4,4
			c61.754,0,111.994-50.239,111.994-111.994C367.979,181.787,366.19,179.998,363.979,179.998z"/>
	</g>
</g>
<g>
	<g>
		<path d="M255.985,115.993c-37.494,0-67.996,30.501-67.996,67.996s30.502,67.997,67.996,67.997
			c37.498,0,67.996-30.503,67.996-67.997S293.483,115.993,255.985,115.993z M255.985,243.987c-33.084,0-59.997-26.913-59.997-59.997
			c0-33.084,26.913-59.997,59.997-59.997c33.084,0,59.997,26.913,59.997,59.997C315.982,217.074,289.07,243.987,255.985,243.987z"/>
	</g>
</g>
<g>
	<g>
		<path d="M255.985,171.99c-6.617,0-11.999,5.382-11.999,11.999c0,6.618,5.382,12,11.999,12s11.999-5.382,11.999-12
			C267.984,177.372,262.602,171.99,255.985,171.99z M255.985,187.99c-2.207,0-4-1.792-4-4c0-2.208,1.793-4,4-4c2.207,0,4,1.793,4,4
			C259.985,186.197,258.193,187.99,255.985,187.99z"/>
	</g>
</g>
<g>
	<g>
		<path d="M255.985,155.992c-15.437,0-27.999,12.561-27.999,27.998s12.562,27.999,27.999,27.999s27.998-12.563,27.998-27.999
			C283.983,168.554,271.422,155.992,255.985,155.992z M255.985,203.989c-11.027,0-19.999-8.972-19.999-19.999
			c0-11.026,8.972-19.999,19.999-19.999c11.031,0,19.999,8.973,19.999,19.999C275.984,195.017,267.016,203.989,255.985,203.989z"/>
	</g>
</g>
<g>
	<g>
		<path d="M255.985,127.992c-6.617,0-11.999,5.383-11.999,12s5.382,12,11.999,12s11.999-5.383,11.999-12
			S262.602,127.992,255.985,127.992z M255.985,143.993c-2.207,0-4-1.793-4-4c0-2.207,1.793-4,4-4c2.207,0,4,1.793,4,4
			C259.985,142.201,258.193,143.993,255.985,143.993z"/>
	</g>
</g>
<g>
	<g>
		<path d="M363.979,31.998c-6.617,0-11.999,5.383-11.999,12s5.382,11.999,11.999,11.999s12-5.383,12-11.999
			C375.979,37.38,370.596,31.998,363.979,31.998z M363.979,47.998c-2.203,0-4-1.793-4-4c0-2.207,1.797-4,4-4s4,1.793,4,4
			C367.979,46.205,366.182,47.998,363.979,47.998z"/>
	</g>
</g>
<g>
	<g>
		<path d="M255.985,215.988c-6.617,0-11.999,5.383-11.999,12s5.382,11.999,11.999,11.999s11.999-5.382,11.999-11.999
			C267.984,221.37,262.602,215.988,255.985,215.988z M255.985,231.988c-2.207,0-4-1.793-4-4c0-2.207,1.793-4,4-4
			c2.207,0,4,1.792,4,4C259.985,230.196,258.193,231.988,255.985,231.988z"/>
	</g>
</g>
<g>
	<g>
		<path d="M233.362,144.399c-4.539-4.535-12.433-4.543-16.968-0.008c-4.679,4.68-4.679,12.297,0.004,16.98
			c2.269,2.261,5.281,3.507,8.484,3.507s6.214-1.246,8.48-3.51c2.27-2.27,3.52-5.285,3.516-8.496
			C236.873,149.669,235.628,146.657,233.362,144.399z M227.706,155.711c-1.508,1.516-4.148,1.508-5.656,0
			c-1.562-1.562-1.562-4.102,0-5.664c0.754-0.754,1.754-1.168,2.82-1.168c1.07,0,2.077,0.418,2.84,1.18
			c0.754,0.75,1.168,1.754,1.168,2.82C228.878,153.949,228.464,154.953,227.706,155.711z"/>
	</g>
</g>
<g>
	<g>
		<path d="M295.577,206.625c-4.516-4.539-12.438-4.535-16.968-0.004c-4.672,4.672-4.672,12.28,0,16.968
			c2.265,2.266,5.28,3.516,8.483,3.516c3.204,0,6.219-1.25,8.485-3.516s3.516-5.281,3.516-8.484S297.843,208.887,295.577,206.625z
			 M289.92,217.933c-1.515,1.508-4.14,1.504-5.656,0.004c-1.555-1.562-1.562-4.101,0-5.659c0.758-0.754,1.766-1.172,2.828-1.172
			c1.071,0,2.079,0.414,2.828,1.171c0.75,0.758,1.172,1.761,1.172,2.828C291.092,216.172,290.67,217.175,289.92,217.933z"/>
	</g>
</g>
<g>
	<g>
		<path d="M211.972,171.999c-6.609,0-11.984,5.374-11.984,11.983c0,6.621,5.386,12.007,12.007,12.007
			c3.211,0,6.226-1.25,8.492-3.522c2.262-2.266,3.504-5.278,3.5-8.469C223.987,177.381,218.612,171.999,211.972,171.999z
			 M214.826,186.818c-2.323,2.312-6.839,0.445-6.839-2.836c0-2.195,1.789-3.984,4.016-3.984c2.195,0,3.984,1.793,3.983,4.008
			C215.987,185.064,215.576,186.064,214.826,186.818z"/>
	</g>
</g>
<g>
	<g>
		<path d="M299.983,171.998c-6.617,0-12,5.382-12,11.999c0,6.606,5.375,11.988,11.992,12c0.008,0,0.008,0,0.008,0
			c6.616,0,11.999-5.382,11.999-12C311.982,177.38,306.599,171.998,299.983,171.998z M299.983,187.998c-2.203-0.004-4-1.801-4-4
			c0-2.208,1.797-4,4-4s4,1.793,4,4C303.983,186.201,302.186,187.994,299.983,187.998z"/>
	</g>
</g>
<g>
	<g>
		<path d="M233.362,206.621c-4.531-4.531-12.441-4.527-16.964-0.004c-2.27,2.262-3.516,5.273-3.52,8.476
			c0,3.211,1.246,6.226,3.516,8.496c2.265,2.266,5.281,3.516,8.484,3.516c3.202,0,6.217-1.25,8.484-3.517
			c2.274-2.273,3.524-5.293,3.52-8.507C236.878,211.879,235.625,208.871,233.362,206.621z M227.706,217.934
			c-1.515,1.508-4.14,1.508-5.656,0c-0.758-0.758-1.172-1.762-1.172-2.832c0-1.067,0.414-2.071,1.172-2.824
			c0.758-0.754,1.762-1.172,2.828-1.172s2.069,0.418,2.836,1.181c0.75,0.746,1.164,1.746,1.168,2.808
			C228.883,216.165,228.464,217.176,227.706,217.934z"/>
	</g>
</g>
<g>
	<g>
		<path d="M295.583,144.399c-4.539-4.535-12.453-4.519-16.952,0c-2.273,2.258-3.523,5.266-3.523,8.473
			c-0.007,3.211,1.243,6.23,3.516,8.503c2.266,2.261,5.265,3.507,8.468,3.507c3.211,0,6.227-1.25,8.491-3.515
			c2.265-2.266,3.515-5.277,3.523-8.48C299.107,149.684,297.857,146.669,295.583,144.399z M289.928,155.71
			c-1.507,1.504-4.148,1.512-5.648,0.008c-0.758-0.758-1.172-1.766-1.172-2.84c0-1.062,0.414-2.062,1.18-2.824
			c0.75-0.754,1.758-1.172,2.82-1.172c1.063,0,2.063,0.418,2.82,1.172c0.758,0.758,1.18,1.762,1.18,2.828
			C291.108,153.948,290.686,154.952,289.928,155.71z"/>
	</g>
</g>
<g>
	<g>
		<path d="M115.993,47.997c-11.027,0-19.999,8.972-19.999,19.999c0,2.211,1.79,4,4,4c2.211,0,4-1.789,4-4c0-6.617,5.383-12,12-12
			c6.616,0,11.999,5.383,11.999,12c0,2.211,1.789,4,4,4s3.999-1.789,3.999-4C135.992,56.969,127.019,47.997,115.993,47.997z"/>
	</g>
</g>
<g>
	<g>
		<path d="M99.993,63.996c-2.211,0-4,1.79-4,4v55.997c0,2.211,1.79,4,4,4c2.211,0,4-1.789,4-4V67.996
			C103.993,65.785,102.204,63.996,99.993,63.996z"/>
	</g>
</g>
<g>
	<g>
		<path d="M422.805,65.169l-47.997-47.998c-1.562-1.562-4.094-1.562-5.656,0s-1.562,4.094,0,5.656l47.997,47.998
			c0.781,0.78,1.805,1.171,2.828,1.171c1.024,0,2.047-0.391,2.828-1.171C424.367,69.262,424.367,66.731,422.805,65.169z"/>
	</g>
</g>
<g>
	<g>
		<path d="M419.977,63.996c-2.211,0-4,1.79-4,4v63.997c0,2.211,1.789,4,4,4s4-1.789,4-4V67.996
			C423.977,65.785,422.188,63.996,419.977,63.996z"/>
	</g>
</g>
<g>
	<g>
		<path d="M371.979,15.999h-63.997c-2.211,0-3.999,1.789-3.999,4s1.788,4,3.999,4h63.997c2.211,0,4-1.789,4-4
			S374.19,15.999,371.979,15.999z"/>
	</g>
</g>
<g>
	<g>
		<path d="M195.989,15.999h-55.997c-2.211,0-4,1.789-4,4s1.79,4,4,4h55.997c2.211,0,4-1.789,4-4S198.2,15.999,195.989,15.999z"/>
	</g>
</g>
<g>
	<g>
		<path d="M142.82,17.17c-1.563-1.562-4.094-1.562-5.656,0l-16,16c-1.562,1.562-1.562,4.094,0,5.656
			c0.781,0.781,1.805,1.172,2.828,1.172s2.047-0.391,2.828-1.172l16-16C144.383,21.264,144.383,18.732,142.82,17.17z"/>
	</g>
</g>
<g>
	<g>
		<path d="M91.995,271.985c-2.211,0-4,1.789-4,4v167.991c0,2.211,1.789,4,4,4s4-1.789,4-4V275.985
			C95.995,273.774,94.206,271.985,91.995,271.985z"/>
	</g>
</g>
<g>
	<g>
		<path d="M267.984,447.976H99.993c-2.211,0-4,1.789-4,4s1.79,3.999,4,3.999h167.991c2.211,0,4-1.788,4-3.999
			S270.195,447.976,267.984,447.976z"/>
	</g>
</g>
<g>
	<g>
		<path d="M100.032,448.015c-2.227,0-4.039-1.812-4.039-4.039c0-2.211-1.789-4-4-4s-4,1.789-4,4c0,6.641,5.403,12.038,12.039,12.038
			c2.211,0,4-1.788,4-3.999S102.243,448.015,100.032,448.015z"/>
	</g>
</g>
<g>
	<g>
		<path d="M158.818,337.154l-63.996-63.997c-1.562-1.562-4.094-1.562-5.656,0s-1.562,4.094,0,5.656l63.997,63.997
			c0.781,0.781,1.805,1.172,2.828,1.172c1.024,0,2.047-0.391,2.827-1.172C160.379,341.248,160.379,338.716,158.818,337.154z"/>
	</g>
</g>
<g>
	<g>
		<path d="M183.79,360.175c-10.578-10.577-29.022-10.577-39.6,0c-5.289,5.289-8.203,12.321-8.203,19.805
			c0,7.476,2.914,14.507,8.203,19.795c5.289,5.289,12.32,8.203,19.8,8.203s14.511-2.914,19.8-8.203
			c5.289-5.288,8.203-12.319,8.203-19.795C191.993,372.495,189.079,365.464,183.79,360.175z M178.133,394.119
			c-7.554,7.554-20.733,7.554-28.287,0c-3.777-3.782-5.859-8.797-5.859-14.14s2.082-10.375,5.859-14.148s8.8-5.859,14.144-5.859
			s10.367,2.086,14.143,5.859c3.777,3.773,5.859,8.804,5.859,14.148C183.992,385.322,181.91,390.338,178.133,394.119z"/>
	</g>
</g>
<g>
	<g>
		<path d="M172.474,371.479c-4.531-4.515-12.437-4.523-16.968,0.008c-4.679,4.68-4.679,12.296,0,16.976
			c2.265,2.266,5.277,3.516,8.484,3.516c3.207,0,6.219-1.25,8.484-3.517C177.154,383.783,177.154,376.167,172.474,371.479z
			 M166.818,382.807c-1.508,1.5-4.148,1.5-5.656,0c-1.562-1.561-1.562-4.1,0-5.655c0.754-0.758,1.758-1.172,2.828-1.172
			s2.074,0.414,2.828,1.164C168.38,378.706,168.38,381.245,166.818,382.807z"/>
	</g>
</g>
<g>
	<g>
		<path d="M255.293,289.749c-1.235-1.828-3.727-2.312-5.551-1.078l-79.987,54.053c-1.832,1.235-2.312,3.726-1.074,5.554
			c0.77,1.141,2.031,1.758,3.316,1.758c0.77,0,1.551-0.227,2.234-0.688l79.988-54.052
			C256.052,294.061,256.531,291.577,255.293,289.749z"/>
	</g>
</g>
<g>
	<g>
		<path d="M254.219,288.671c-1.828-1.234-4.32-0.75-5.55,1.078l-54.052,79.98c-1.238,1.828-0.758,4.321,1.074,5.555
			c0.683,0.461,1.464,0.688,2.234,0.688c1.286,0,2.547-0.617,3.316-1.758l54.052-79.996
			C256.531,292.39,256.052,289.905,254.219,288.671z"/>
	</g>
</g>
<g>
	<g>
		<path d="M270.813,449.148l-63.996-63.997c-1.562-1.562-4.094-1.562-5.656,0s-1.562,4.094,0,5.656l63.997,63.997
			c0.781,0.78,1.805,1.171,2.827,1.171c1.023,0,2.047-0.39,2.828-1.171C272.375,453.242,272.375,450.71,270.813,449.148z"/>
	</g>
</g>
<g>
	<g>
		<path d="M419.975,423.977H323.98c-0.726,0-1.437,0.195-2.062,0.57l-39.998,23.999c-1.889,1.133-2.499,3.594-1.366,5.492
			c0.749,1.249,2.07,1.937,3.429,1.937c0.703,0,1.414-0.187,2.061-0.57l39.045-23.428h94.886c2.211,0,4-1.789,4-4
			S422.186,423.977,419.975,423.977z"/>
	</g>
</g>
<g>
	<g>
		<path d="M419.977,239.987c-2.211,0-4,1.789-4,4v183.99c0,2.211,1.789,4,4,4s4-1.789,4-4v-183.99
			C423.977,241.776,422.188,239.987,419.977,239.987z"/>
	</g>
</g>
<g>
	<g>
		<path d="M131.992,407.978h-23.999c-2.211,0-4,1.789-4,4s1.789,4,4,4h23.999c2.211,0,4-1.789,4-4S134.203,407.978,131.992,407.978z
			"/>
	</g>
</g>
<g>
	<g>
		<path d="M131.992,407.978c-2.211,0-4,1.789-4,4v23.998c0,2.211,1.789,4,4,4s3.999-1.789,4-4v-23.998
			C135.992,409.767,134.203,407.978,131.992,407.978z"/>
	</g>
</g>
<g>
	<g>
		<path d="M395.977,303.984h-15.999c-2.211,0-3.999,1.789-3.999,4v15.998c0,2.211,1.788,4,3.999,4h15.999
			c6.617,0,12-5.383,12-11.999C407.977,309.366,402.594,303.984,395.977,303.984z M395.977,319.983h-11.999v-8h11.999
			c2.203,0,4,1.797,4,4S398.18,319.983,395.977,319.983z"/>
	</g>
</g>
<g>
	<g>
		<path d="M291.983,359.972c-2.211,0-4,1.789-4,4v32.006c0,2.211,1.789,4,4,4c2.211,0,4-1.789,4-4v-32.006
			C295.983,361.761,294.194,359.972,291.983,359.972z"/>
	</g>
</g>
<g>
	<g>
		<path d="M395.977,359.98c-2.211,0-4,1.789-4,4v31.998c0,2.211,1.789,4,4,4s4-1.789,4-4V363.98
			C399.977,361.769,398.188,359.98,395.977,359.98z"/>
	</g>
</g>
<g>
	<g>
		<path d="M395.977,359.98H291.983c-2.211,0-4,1.789-4,4s1.789,4,4,4h103.994c2.211,0,4-1.789,4-4S398.188,359.98,395.977,359.98z"
			/>
	</g>
</g>
<g>
	<g>
		<path d="M395.977,391.979H291.983c-2.211,0-4,1.789-4,3.999c0,2.211,1.789,4,4,4h103.994c2.211,0,4-1.789,4-4
			C399.977,393.768,398.188,391.979,395.977,391.979z"/>
	</g>
</g>
<g>
	<g>
		<path d="M323.982,367.98c-2.211,0-4,1.789-4,4v15.999c0,2.211,1.789,4,4,4s4-1.789,4-4V371.98
			C327.982,369.769,326.193,367.98,323.982,367.98z"/>
	</g>
</g>
<g>
	<g>
		<path d="M363.979,367.98c-2.211,0-4,1.789-4,4v15.999c0,2.211,1.789,4,4,4s4-1.789,4-4V371.98
			C367.979,369.769,366.19,367.98,363.979,367.98z"/>
	</g>
</g>
<g>
</g>
<g>
</g>
<g>
</g>
<g>
</g>
<g>
</g>
<g>
</g>
<g>
</g>
<g>
</g>
<g>
</g>
<g>
</g>
<g>
</g>
<g>
</g>
<g>
</g>
<g>
</g>
<g>
</g>
</svg>
